# xmcd
#
# Track frame offsets:
#	150
#	13255
#	22017
#	36255
#	46168
#	58457
#	72794
#	84133
#	95903
#	107358
#	117707
#	126849
#	140391
#	150363
#	162403
#	172613
#
# Disc length: 2435 seconds
#
# Revision: 0
# Processed by: cddbd v1.4PL0 Copyright (c) Steve Scherf et al.
# Submitted via: audiograbber 1.82.02
#
DISCID=d1098110
DTITLE=Various Artist - Best of Country and Western (FNM) - CD4 (of 4)
DYEAR=2001
DGENRE=Country
TTITLE0=Gene Pitney - The Man Who Shot Liberty Valence (1962)
TTITLE1=Sandy Posey - Born A Woman (1966)
TTITLE2=B.J.Thomas - I'm So Lonesome I Could Cry (1966)
TTITLE3=Jim Reeves - He'll Have To Go -live (1959)
TTITLE4=Charlie Rich - The Most Beautiful Girl In The World (1973)
TTITLE5=Jeannie C. Riley - Harper Valley P.T.A. (1968)
TTITLE6=Jimmie Rodgers - Waltzing Matilda (1960)
TTITLE7=Roger Miller - Little Green Apples (1968)
TTITLE8=Sammy Smith - Help Me Make It Through The Night (1961)
TTITLE9=Sue Thomas - Norman
TTITLE10=Al Caiola - The Magnificent Seven (1961)
TTITLE11=B.J.Thomas - Raindrops Keep Falling On My Head (1969)
TTITLE12=Leroy Van Dyke - Walk On By (1961)
TTITLE13=Tammy Wynette - Stand By Your Man (1968)
TTITLE14=Faron Young - Hello Walls
TTITLE15=Loretta Young - You're Looking At Country
EXTD=
EXTT0=
EXTT1=
EXTT2=
EXTT3=
EXTT4=
EXTT5=
EXTT6=
EXTT7=
EXTT8=
EXTT9=
EXTT10=
EXTT11=
EXTT12=
EXTT13=
EXTT14=
EXTT15=
PLAYORDER=
